<svg width="16" height="12" viewBox="0 0 16 12" fill="none" xmlns="http://www.w3.org/2000/svg">
<path d="M15.0613 1.22766L6.53104 11.1879C6.46139 11.2547 6.37867 11.3077 6.28762 11.3439C6.19657 11.3801 6.09898 11.3987 6.00042 11.3987C5.90186 11.3987 5.80426 11.3801 5.71321 11.3439C5.62216 11.3077 5.53945 11.2547 5.46979 11.1879L0.219792 6.15665C0.0790615 6.02178 0 5.83886 0 5.64813C0 5.4574 0.0790615 5.27449 0.219792 5.13962C0.360523 5.00475 0.551394 4.92898 0.750417 4.92898C0.94944 4.92898 1.14031 5.00475 1.28104 5.13962L6.00042 9.66325L14 0.210632C14.1407 0.0757656 14.3316 -1.32762e-06 14.5306 -1.3262e-06C14.7296 -1.32478e-06 14.9205 0.0757656 15.0613 0.210632C15.202 0.345499 15.281 0.528418 15.281 0.719148C15.281 0.909879 15.202 1.0928 15.0613 1.22766Z" fill="#51646E"/>
</svg>
